# xmcd
#
# Track frame offsets:
#	150
#	22052
#	36832
#	60532
#	75772
#	101647
#	117805
#	137165
#	151175
#	166930
#	182075
#	200685
#
# Disc length: 2917 seconds
#
# Revision: 1
# Processed by: cddbd v1.5.1PL0 Copyright (c) Steve Scherf et al.
# Submitted via: CDex 1.50Beta5
#
DISCID=940b630c
DTITLE=Clingon - bobsleigh
DYEAR=2000
DGENRE=Rock
TTITLE0=リュックと嘘つき
TTITLE1=恋は、あいにく
TTITLE2=前屈みのボブ
TTITLE3=公園
TTITLE4=恋が疑いの種ならば
TTITLE5=15分
TTITLE6=夢を喰え
TTITLE7=Orange
TTITLE8=文句はない
TTITLE9=Todd Love
TTITLE10=中の恋
TTITLE11=春模様
EXTD=
EXTT0=
EXTT1=
EXTT2=
EXTT3=
EXTT4=
EXTT5=
EXTT6=
EXTT7=
EXTT8=
EXTT9=
EXTT10=
EXTT11=
PLAYORDER=
